<svg width="52" height="52" viewBox="0 0 52 52" fill="none" xmlns="http://www.w3.org/2000/svg">
<path d="M20.8171 46.7543C25.2475 46.9035 25.938 44.5059 25.938 44.5059C25.938 44.5059 26.6258 46.9062 31.059 46.7543C28.631 39.3103 31.2025 31.5791 37.6246 27.0353C40.5828 24.9444 43.9222 23.8644 47.2727 23.7843C47.8445 18.2517 42.1711 19.5831 41.265 20.4891C44.5603 17.3375 40.4061 11.3437 34.821 18.4369C30.6584 23.7208 30.1557 24.1628 30.1557 24.1628C30.1557 24.1628 27.6532 28.4607 25.9379 22.9226C24.2226 28.4607 21.72 24.1628 21.72 24.1628C21.72 24.1628 21.2146 23.7181 17.0548 18.4369C11.4698 11.3437 7.31544 17.3375 10.6107 20.4891C9.70475 19.5831 4.03404 18.249 4.60305 23.7843C7.95629 23.8616 11.2957 24.9416 14.2512 27.0353C20.6703 31.5763 23.2449 39.3102 20.8171 46.7543ZM24.6511 36.0149C23.944 33.2693 22.6652 30.6867 20.8642 28.4107C21.6404 28.9383 22.6044 29.3333 23.7534 29.3333C24.4218 29.3333 25.1759 29.2034 25.9327 28.8168C26.6868 29.2063 27.4436 29.3334 28.112 29.3333C29.2611 29.3333 30.225 28.9383 31.0012 28.4107C29.2003 30.6867 27.9214 33.2693 27.2115 36.0121L25.9299 41.8347L24.6427 36.0177L24.6511 36.0149Z" fill="white"/>
<path d="M23.7185 22.3261C23.0722 20.1109 21.1138 13.0812 21.959 11.6449C22.9617 9.93512 24.4063 12.2305 24.4063 12.2305C24.4063 12.2305 24.503 7.95189 25.942 6.96032C27.3811 7.95196 27.4778 12.2305 27.4778 12.2305C27.4778 12.2305 28.9196 9.93238 29.925 11.6449C30.7675 13.084 28.8119 20.1108 28.1655 22.3261C28.1268 22.4642 28.3036 22.5526 28.392 22.4421C29.1903 21.3953 31.0685 18.9314 33.6069 15.5202C37.0292 10.9268 34.3278 7.05427 30.7785 7.05151C30.7785 2.726 25.9503 1.46646 25.9503 1.46646C25.9503 1.46646 21.1193 2.72878 21.1221 7.05151C17.57 7.05151 14.8685 10.9241 18.2936 15.5202C20.8348 18.9287 22.7103 21.3952 23.5085 22.4421C23.5969 22.5581 23.7737 22.4642 23.735 22.3261L23.7185 22.3261Z" fill="white"/>
</svg>
