<svg width="44" height="60" viewBox="0 0 44 60" fill="none" xmlns="http://www.w3.org/2000/svg">
<path d="M4.36124 17.7198C4.71717 19.0012 5.37167 19.624 6.14875 19.8158C6.16062 19.8158 6.16457 19.8119 6.16853 19.8158C6.26542 19.8257 6.3544 19.8435 6.44536 19.8593C6.45723 19.8593 6.46514 19.8593 6.48293 19.8653C7.34505 20.0235 7.94222 20.2806 8.10041 20.4387C8.26057 20.5989 8.50576 21.1724 8.66396 22.0147C8.66792 22.1373 8.68572 22.25 8.71735 22.3647C8.72131 22.3805 8.72329 22.3904 8.72328 22.4023C8.91509 23.1794 9.53794 23.822 10.8153 24.174C20.3265 27.318 28.4377 16.2604 22.1021 8.0862C14.705 -0.821579 0.898685 6.96901 4.35925 17.7179L4.36124 17.7198ZM20.3305 9.47023C24.8766 15.357 19.8992 23.0588 13.3741 22.4299C12.1659 22.3093 11.5747 20.8757 12.3617 19.9503C12.4091 19.891 12.4625 19.8376 12.5159 19.7763C14.08 21.9376 17.6788 20.85 17.8528 18.2281C20.4451 18.0639 21.5505 14.5185 19.4545 12.9327C20.37 10.6014 17.9378 8.16926 15.6065 9.08473C14.0207 6.98874 10.4812 8.09996 10.3112 10.6864C7.6872 10.8624 6.60165 14.4711 8.76881 16.0293C8.70355 16.0826 8.65016 16.136 8.5948 16.1835C7.67335 16.9665 6.23781 16.3812 6.12113 15.177C5.37767 7.86472 14.9302 3.02617 20.3325 9.47222L20.3305 9.47023Z" fill="black"/>
<path d="M10.8195 35.825C9.53821 36.1809 8.91535 36.8354 8.72356 37.6125C8.72356 37.6243 8.72751 37.6283 8.72356 37.6322C8.71367 37.7291 8.69587 37.8181 8.68005 37.9091C8.68005 37.9209 8.68005 37.9288 8.67412 37.9466C8.51594 38.8088 8.25883 39.4059 8.10065 39.5641C7.94048 39.7243 7.36704 39.9695 6.52468 40.1277C6.40208 40.1316 6.28937 40.1494 6.17468 40.1811C6.15887 40.185 6.14898 40.187 6.13711 40.187C5.36001 40.3788 4.71738 41.0016 4.3654 42.279C1.22142 51.7902 12.279 59.9014 20.4532 53.5658C29.361 46.1687 21.5704 32.3624 10.8215 35.823L10.8195 35.825ZM19.0692 51.7942C13.1824 56.3403 5.48061 51.3629 6.10946 44.8378C6.23009 43.6296 7.66367 43.0384 8.58905 43.8254C8.64838 43.8728 8.70176 43.9262 8.76306 43.9796C6.6018 45.5437 7.68935 49.1425 10.3113 49.3165C10.4755 51.9088 14.0209 53.0142 15.6067 50.9182C17.938 51.8337 20.3701 49.4016 19.4547 47.0702C21.5507 45.4844 20.4394 41.9449 17.853 41.7749C17.677 39.1509 14.0683 38.0654 12.5101 40.2325C12.4568 40.1673 12.4034 40.1139 12.3559 40.0585C11.5729 39.1371 12.1582 37.7015 13.3624 37.5848C20.6747 36.8414 25.5132 46.3939 19.0692 51.7942Z" fill="black"/>
<path d="M10.1631 26.3361C10.0563 29.5078 11.7727 30.0021 11.7727 30.0021C11.7727 30.0021 10.0543 30.4945 10.1631 33.6681C15.4921 31.93 21.0267 33.7709 24.2795 38.3683C25.7764 40.4861 26.5495 42.8767 26.6069 45.2752C30.5675 45.6846 29.6144 41.6231 28.9658 40.9745C31.222 43.3335 35.5129 40.3595 30.435 36.3613C26.6523 33.3814 26.3359 33.0215 26.3359 33.0215C26.3359 33.0215 23.2591 31.23 27.2237 30.002C23.2591 28.7741 26.3359 26.9826 26.3359 26.9826C26.3359 26.9826 26.6543 26.6207 30.435 23.6428C35.5128 19.6446 31.222 16.6706 28.9658 19.0296C29.6144 18.381 30.5695 14.3215 26.6069 14.7288C26.5515 17.1294 25.7784 19.52 24.2795 21.6357C21.0287 26.2311 15.4921 28.0742 10.1631 26.3361ZM17.8512 29.0809C19.8167 28.5747 21.6656 27.6592 23.2949 26.3699C22.9172 26.9255 22.6344 27.6156 22.6344 28.4382C22.6344 28.9167 22.7274 29.4566 23.0042 29.9983C22.7254 30.5382 22.6344 31.08 22.6344 31.5585C22.6344 32.381 22.9172 33.0711 23.2949 33.6268C21.6655 32.3375 19.8167 31.422 17.8532 30.9138L13.6849 29.9963L17.8492 29.0749L17.8512 29.0809Z" fill="black"/>
<path d="M27.6508 28.4131C29.2366 27.9504 34.269 26.5485 35.2973 27.1535C36.5213 27.8713 34.8781 28.9054 34.8781 28.9054C34.8781 28.9054 37.941 28.9747 38.6509 30.0049C37.941 31.0351 34.8781 31.1043 34.8781 31.1043C34.8781 31.1043 36.5232 32.1365 35.2973 32.8562C34.267 33.4593 29.2367 32.0593 27.6508 31.5966C27.5519 31.5689 27.4886 31.6955 27.5677 31.7588C28.3172 32.3302 30.081 33.6748 32.523 35.492C35.8113 37.942 38.5836 36.0081 38.5856 33.4672C41.6821 33.4672 42.5838 30.0108 42.5838 30.0108C42.5838 30.0108 41.6801 26.5524 38.5856 26.5543C38.5856 24.0115 35.8133 22.0776 32.523 24.5295C30.0829 26.3487 28.3172 27.6913 27.5677 28.2628C27.4847 28.3261 27.5519 28.4526 27.6508 28.4249L27.6508 28.4131Z" fill="black"/>
</svg>
