<svg width="44" height="60" viewBox="0 0 44 60" fill="none" xmlns="http://www.w3.org/2000/svg">
<path d="M39.2726 42.2802C38.9166 40.9988 38.2621 40.376 37.485 40.1842C37.4732 40.1842 37.4692 40.1881 37.4653 40.1842C37.3684 40.1743 37.2794 40.1565 37.1884 40.1407C37.1766 40.1407 37.1687 40.1407 37.1509 40.1347C36.2887 39.9765 35.6916 39.7194 35.5334 39.5613C35.3732 39.4011 35.128 38.8277 34.9698 37.9853C34.9659 37.8627 34.9481 37.75 34.9164 37.6353C34.9125 37.6195 34.9105 37.6096 34.9105 37.5977C34.7187 36.8206 34.0959 36.178 32.8185 35.826C23.3073 32.682 15.1961 43.7396 21.5317 51.9138C28.9288 60.8216 42.7351 53.031 39.2745 42.2821L39.2726 42.2802ZM23.3033 50.5298C18.7572 44.643 23.7346 36.9412 30.2597 37.5701C31.4679 37.6907 32.0591 39.1243 31.2721 40.0497C31.2247 40.109 31.1713 40.1624 31.1179 40.2237C29.5538 38.0624 25.955 39.15 25.781 41.7719C23.1887 41.9361 22.0833 45.4815 24.1793 47.0673C23.2638 49.3986 25.6959 51.8307 28.0273 50.9153C29.6131 53.0113 33.1526 51.9 33.3226 49.3136C35.9466 49.1376 37.0321 45.5289 34.865 43.9707C34.9302 43.9174 34.9836 43.864 35.039 43.8165C35.9604 43.0335 37.396 43.6188 37.5127 44.823C38.2561 52.1353 28.7036 56.9738 23.3013 50.5278L23.3033 50.5298Z" fill="black"/>
<path d="M32.8142 24.175C34.0956 23.8191 34.7184 23.1646 34.9102 22.3875C34.9102 22.3757 34.9063 22.3717 34.9102 22.3678C34.9201 22.2709 34.9379 22.1819 34.9537 22.0909C34.9537 22.0791 34.9537 22.0712 34.9597 22.0534C35.1179 21.1912 35.375 20.5941 35.5331 20.4359C35.6933 20.2757 36.2667 20.0305 37.1091 19.8723C37.2317 19.8684 37.3444 19.8506 37.4591 19.8189C37.4749 19.815 37.4848 19.813 37.4967 19.813C38.2738 19.6212 38.9164 18.9984 39.2684 17.721C42.4124 8.20983 31.3548 0.0985623 23.1806 6.43422C14.2728 13.8313 22.0634 27.6376 32.8123 24.177L32.8142 24.175ZM24.5646 8.20582C30.4514 3.6597 38.1532 8.6371 37.5243 15.1622C37.4037 16.3704 35.9701 16.9616 35.0447 16.1746C34.9854 16.1272 34.932 16.0738 34.8707 16.0204C37.032 14.4563 35.9444 10.8575 33.3224 10.6835C33.1583 8.09117 29.6129 6.98583 28.0271 9.08181C25.6958 8.16629 23.2637 10.5984 24.1791 12.9298C22.0831 14.5156 23.1944 18.0551 25.7808 18.2251C25.9568 20.8491 29.5655 21.9346 31.1236 19.7675C31.177 19.8327 31.2304 19.8861 31.2779 19.9415C32.0609 20.8629 31.4756 22.2985 30.2714 22.4152C22.9591 23.1586 18.1205 13.6061 24.5646 8.20582Z" fill="black"/>
<path d="M33.4707 33.6639C33.5775 30.4922 31.8611 29.9979 31.8611 29.9979C31.8611 29.9979 33.5794 29.5055 33.4707 26.3319C28.1417 28.07 22.6071 26.2291 19.3543 21.6317C17.8574 19.5139 17.0843 17.1233 17.0269 14.7248C13.0663 14.3154 14.0194 18.3769 14.6679 19.0255C12.4118 16.6665 8.12091 19.6405 13.1988 23.6387C16.9815 26.6186 17.2979 26.9785 17.2979 26.9785C17.2979 26.9785 20.3746 28.77 16.4101 29.998C20.3746 31.2259 17.2979 33.0174 17.2979 33.0174C17.2979 33.0174 16.9795 33.3793 13.1988 36.3572C8.12095 40.3554 12.4118 43.3294 14.6679 40.9704C14.0194 41.619 13.0643 45.6785 17.0269 45.2712C17.0823 42.8706 17.8554 40.48 19.3543 38.3643C22.6051 33.7689 28.1416 31.9258 33.4707 33.6639ZM25.7826 30.9191C23.8171 31.4253 21.9682 32.3408 20.3389 33.6301C20.7166 33.0745 20.9993 32.3844 20.9994 31.5618C20.9994 31.0833 20.9064 30.5434 20.6296 30.0017C20.9084 29.4618 20.9994 28.92 20.9994 28.4415C20.9994 27.619 20.7166 26.9289 20.3389 26.3732C21.9682 27.6625 23.8171 28.578 25.7806 29.0862L29.9488 30.0037L25.7846 30.9251L25.7826 30.9191Z" fill="black"/>
<path d="M15.983 31.5869C14.3972 32.0496 9.36479 33.4515 8.33654 32.8465C7.11254 32.1287 8.75572 31.0946 8.75572 31.0946C8.75572 31.0946 5.69278 31.0253 4.98293 29.9951C5.69283 28.9649 8.75572 28.8957 8.75572 28.8957C8.75572 28.8957 7.11057 27.8635 8.33654 27.1438C9.36675 26.5407 14.3971 27.9407 15.983 28.4034C16.0819 28.4311 16.1452 28.3045 16.0661 28.2412C15.3166 27.6698 13.5528 26.3252 11.1108 24.508C7.82246 22.058 5.05019 23.9919 5.04821 26.5328C1.95166 26.5328 1.04998 29.9892 1.04998 29.9892C1.04998 29.9892 1.95365 33.4476 5.04821 33.4457C5.04821 35.9885 7.82049 37.9224 11.1108 35.4705C13.5509 33.6513 15.3166 32.3087 16.0661 31.7372C16.1491 31.6739 16.0819 31.5474 15.983 31.5751L15.983 31.5869Z" fill="black"/>
</svg>
