<svg width="63" height="63" viewBox="0 0 63 63" fill="none" xmlns="http://www.w3.org/2000/svg">
<path d="M63 31.4998V29.2498C63 28.0123 61.9875 26.9998 60.75 26.9998H47.25V22.1848C51.12 21.1723 54 17.6847 54 13.5001V11.2501C54 10.0125 52.9875 9.00005 51.75 9.00005H38.88L37.485 3.39756C36.99 1.39508 35.19 0 33.12 0H29.88C27.81 0 26.01 1.39501 25.515 3.39756L24.12 9.00005H11.25C10.0125 9.00005 9 10.0125 9 11.2501V13.5001C9 17.6851 11.88 21.1724 15.75 22.1848V26.9998H2.25C1.01246 26.9998 0 28.0123 0 29.2498V31.4998C0 35.6848 2.88 39.1722 6.75 40.1845V49.4999C4.275 49.4999 2.25 51.5249 2.25 53.9999V58.5C2.25 60.975 4.275 63 6.75 63H56.25C58.725 63 60.75 60.975 60.75 58.5V53.9999C60.75 51.5249 58.725 49.4999 56.25 49.4999V40.1845C60.12 39.172 63 35.6845 63 31.4998ZM54 35.9998H45.6754L38.9254 31.4998H58.5007C58.5007 33.9748 56.475 35.9998 54 35.9998ZM33.75 49.4999H29.25V44.9999H33.75V49.4999ZM36 40.4999H27C25.7625 40.4999 24.75 41.5123 24.75 42.7499V49.4999H20.25V39.4645L31.5 31.9721L42.75 39.4645V49.4999H38.25V42.7499C38.25 41.5123 37.2375 40.4999 36 40.4999ZM33.75 26.9998H29.25V22.4998H33.75V26.9998ZM38.25 26.9998V22.4998H42.75V26.9998H38.25ZM29.88 4.49967H33.12L34.245 8.99969H28.755L29.88 4.49967ZM13.5 13.4997H49.5C49.5 15.9747 47.475 17.9997 45 17.9997H18C15.525 17.9997 13.5 15.9747 13.5 13.4997ZM20.25 22.4998H24.75V26.9998H20.25V22.4998ZM4.5 31.4998H24.0754L17.3254 35.9998H9.00072C6.52572 35.9998 4.50072 33.9748 4.50072 31.4998H4.5ZM11.25 40.4999H15.75V49.4999H11.25V40.4999ZM56.25 58.5H6.75V53.9999H56.25V58.5ZM47.25 49.4999V40.4999H51.75V49.4999H47.25Z" fill="#DAA520"/>
</svg>
