<svg width="71" height="71" viewBox="0 0 71 71" fill="none" xmlns="http://www.w3.org/2000/svg">
<path d="M71 35.4998V32.9641C71 31.5694 69.859 30.4283 68.4643 30.4283H53.25V25.0019C57.6114 23.8608 60.8571 19.9304 60.8571 15.2144V12.6786C60.8571 11.284 59.7161 10.1429 58.3214 10.1429H43.8171L42.245 3.82899C41.6871 1.57223 39.6586 0 37.3257 0H33.6743C31.3414 0 29.3129 1.57215 28.755 3.82899L27.1829 10.1429H12.6786C11.2839 10.1429 10.1429 11.284 10.1429 12.6786V15.2144C10.1429 19.9308 13.3886 23.861 17.75 25.0019V30.4283H2.53571C1.14103 30.4283 0 31.5694 0 32.9641V35.4998C0 40.2163 3.24571 44.1464 7.60714 45.2873V55.7856C4.81786 55.7856 2.53571 58.0678 2.53571 60.8571V65.9285C2.53571 68.7178 4.81786 71 7.60714 71H63.3929C66.1821 71 68.4643 68.7178 68.4643 65.9285V60.8571C68.4643 58.0678 66.1821 55.7856 63.3929 55.7856V45.2873C67.7543 44.1463 71 40.2159 71 35.4998ZM60.8571 40.5713H51.4754L43.8683 35.4998H65.9294C65.9294 38.2891 63.6464 40.5713 60.8571 40.5713ZM38.0357 55.7856H32.9643V50.7142H38.0357V55.7856ZM40.5714 45.6427H30.4286C29.0339 45.6427 27.8929 46.7838 27.8929 48.1784V55.7856H22.8214V44.4759L35.5 36.0321L48.1786 44.4759V55.7856H43.1071V48.1784C43.1071 46.7838 41.9661 45.6427 40.5714 45.6427ZM38.0357 30.4283H32.9643V25.3569H38.0357V30.4283ZM43.1071 30.4283V25.3569H48.1786V30.4283H43.1071ZM33.6743 5.07105H37.3257L38.5936 10.1425H32.4064L33.6743 5.07105ZM15.2143 15.214H55.7857C55.7857 18.0033 53.5036 20.2854 50.7143 20.2854H20.2857C17.4964 20.2854 15.2143 18.0033 15.2143 15.214ZM22.8214 25.3569H27.8929V30.4283H22.8214V25.3569ZM5.07143 35.4998H27.1325L19.5254 40.5713H10.1437C7.35438 40.5713 5.07224 38.2891 5.07224 35.4998H5.07143ZM12.6786 45.6427H17.75V55.7856H12.6786V45.6427ZM63.3929 65.9285H7.60714V60.8571H63.3929V65.9285ZM53.25 55.7856V45.6427H58.3214V55.7856H53.25Z" fill="#DAA520"/>
</svg>
